<svg width="61" height="85" viewBox="0 0 61 85" fill="none" xmlns="http://www.w3.org/2000/svg">
<path fill-rule="evenodd" clip-rule="evenodd" d="M56.4107 22.4634L17.5057 0V23.6936C28.2146 29.8692 38.9173 36.0509 49.6262 42.2265V42.2388L56.4476 38.2653C59.3386 36.5799 60.9809 33.7074 60.9747 30.3613C60.9747 27.0151 59.3078 24.1488 56.4107 22.4696V22.4634ZM40.7195 42.1527C40.7195 42.0666 19.4925 29.7892 17.518 28.6451L3.05704 37.0597C1.10718 38.1915 0 40.1352 0 42.3803C0 44.6254 1.10718 46.5753 3.05704 47.7132L17.0198 55.8448L40.7318 42.1589H40.7195V42.1527Z" fill="#2371B9"/>
<path fill-rule="evenodd" clip-rule="evenodd" d="M60.9996 54.0791C60.9996 57.4252 59.3265 60.2916 56.4356 61.9647C43.4631 69.4566 30.4907 76.9423 17.5183 84.4281V60.636L49.5895 42.1585L56.4663 46.1689C59.3634 47.8543 61.0057 50.733 60.9996 54.0729V54.0791Z" fill="#2371B9"/>
</svg>
